<svg width="72" height="72" viewBox="0 0 72 72" fill="none" xmlns="http://www.w3.org/2000/svg">
<g id="fishka-logo">
<g id="color">
<path id="Vector" d="M16.1101 37.4612C16.1101 37.4612 11 32.6538 12.0442 26.3886C13.0884 20.1234 25.6188 27.4328 26.663 32.6538C26.663 32.6538 29.7956 27.4328 35.0166 26.3886C35.0166 26.3886 33.9724 21.1676 35.0166 18.035C35.0166 18.035 46.5028 13.8582 50.6796 24.3002C50.6796 24.3002 62.1658 26.3886 63.21 35.7864L60.0774 37.8748L62.8184 40.2243C62.8184 40.2243 62.6924 47.2056 50.9429 50.3717C50.9429 50.3717 48.5912 57.7146 40.2376 55.6262L41.2818 50.4052C41.2818 50.4052 35.0166 51.4494 26.663 42.0516C26.663 42.0516 23.5304 51.4494 11 49.361C11.0001 49.361 10.7782 41.2244 16.1101 37.4612Z" fill="#92D3F5"/>
<path id="Vector_2" d="M41.7805 30.9182C41.7805 30.9182 33.9141 35.2617 40.9153 41.9658L41.7805 30.9182Z" fill="#61B2E4"/>
</g>
<g id="line">
<path id="Vector_3" d="M16.1101 37.4612C16.1101 37.4612 11 32.6538 12.0442 26.3886C13.0884 20.1234 25.6188 27.4328 26.663 32.6538C26.663 32.6538 29.7956 27.4328 35.0166 26.3886C35.0166 26.3886 33.9724 21.1676 35.0166 18.035C35.0166 18.035 46.5028 13.8582 50.6796 24.3002C50.6796 24.3002 62.1658 26.3886 63.21 35.7864L60.0774 37.8748L62.8184 40.2243C62.8184 40.2243 62.6924 47.2056 50.9429 50.3717C50.9429 50.3717 48.5912 57.7146 40.2376 55.6262L41.2818 50.4052C41.2818 50.4052 35.0166 51.4494 26.663 42.0516C26.663 42.0516 23.5304 51.4494 11 49.361C11.0001 49.361 10.7782 41.2244 16.1101 37.4612Z" stroke="black" stroke-width="2" stroke-miterlimit="10" stroke-linecap="round" stroke-linejoin="round"/>
<path id="Vector_4" d="M41 31C41 31 35 35 40 42" stroke="black" stroke-width="2" stroke-miterlimit="10" stroke-linecap="round" stroke-linejoin="round"/>
</g>
</g>
</svg>
