<svg width="43" height="39" viewBox="0 0 43 39" fill="none" xmlns="http://www.w3.org/2000/svg">
<path d="M10.0643 25.7511C10.0643 25.7511 5.89996 24.3778 4.83657 20.5531C3.77318 16.7284 12.8016 17.559 14.7721 20.2406C14.7721 20.2406 15.1675 16.4558 17.8491 14.4852C17.8491 14.4852 15.8786 11.8037 15.6426 9.75341C15.6426 9.75341 21.0456 4.35357 26.1697 9.16511C26.1697 9.16511 33.2276 7.31415 36.3014 12.3616L35.0785 14.372L37.2517 14.9789C37.2517 14.9789 39.0244 18.9667 33.2053 23.8636C33.2053 23.8636 33.8127 28.6441 28.5292 29.6676L27.7416 26.4344C27.7416 26.4344 24.4686 28.6807 17.2544 25.5639C17.2544 25.5639 17.9623 31.7147 10.3129 33.8414C10.313 33.8414 8.03813 29.2911 10.0643 25.7511Z" fill="#92D3F5"/>
<path d="M22.8769 15.2644C22.8769 15.2644 19.5683 19.8026 25.3049 21.7508L22.8769 15.2644Z" fill="#61B2E4"/>
<path d="M10.0643 25.7511C10.0643 25.7511 5.89996 24.3778 4.83657 20.5531C3.77318 16.7284 12.8016 17.559 14.7721 20.2406C14.7721 20.2406 15.1675 16.4558 17.8491 14.4852C17.8491 14.4852 15.8786 11.8037 15.6426 9.75341C15.6426 9.75341 21.0456 4.35357 26.1697 9.16511C26.1697 9.16511 33.2276 7.31415 36.3014 12.3616L35.0785 14.372L37.2517 14.9789C37.2517 14.9789 39.0244 18.9667 33.2053 23.8636C33.2053 23.8636 33.8127 28.6441 28.5292 29.6676L27.7416 26.4344C27.7416 26.4344 24.4686 28.6807 17.2544 25.5639C17.2544 25.5639 17.9623 31.7147 10.3129 33.8414C10.313 33.8414 8.03813 29.2911 10.0643 25.7511Z" stroke="black" stroke-width="2" stroke-miterlimit="10" stroke-linecap="round" stroke-linejoin="round"/>
<path d="M22.4564 15.5169C22.4564 15.5169 20.1143 19.3675 24.7954 22.0119" stroke="black" stroke-width="2" stroke-miterlimit="10" stroke-linecap="round" stroke-linejoin="round"/>
</svg>
